<svg width="20" height="19" viewBox="0 0 20 19" fill="none" xmlns="http://www.w3.org/2000/svg">
<path d="M1 14.0003C0.734784 14.0003 0.48043 13.895 0.292893 13.7075C0.105357 13.5199 0 13.2656 0 13.0003C0 12.7351 0.105357 12.4808 0.292893 12.2932C0.48043 12.1057 0.734784 12.0003 1 12.0003H11.5C12.5 12.0003 13.5 14.0003 13 14.0003H1ZM15 14.0003C14.7348 14.0003 14.4804 13.895 14.2929 13.7075C14.1054 13.5199 14 13.2656 14 13.0003C14 12.7351 14.1054 12.4808 14.2929 12.2932C14.4804 12.1057 14.7348 12.0003 15 12.0003H19C19.2652 12.0003 19.5196 12.1057 19.7071 12.2932C19.8946 12.4808 20 12.7351 20 13.0003C20 13.2656 19.8946 13.5199 19.7071 13.7075C19.5196 13.895 19.2652 14.0003 19 14.0003H15ZM10.633 0.501347C10.7653 0.271405 10.9836 0.103453 11.2398 0.0344396C11.496 -0.0345738 11.7691 0.00100453 11.999 0.133348C12.2289 0.265691 12.3969 0.483957 12.4659 0.740132C12.5349 0.996307 12.4993 1.2694 12.367 1.49935L5.46 13.4953C5.39454 13.6092 5.30729 13.7091 5.20324 13.7892C5.09918 13.8693 4.98037 13.9282 4.85357 13.9624C4.72677 13.9966 4.59447 14.0055 4.46423 13.9886C4.33399 13.9717 4.20836 13.9293 4.0945 13.8638C3.98064 13.7984 3.8808 13.7111 3.80066 13.6071C3.72052 13.503 3.66166 13.3842 3.62745 13.2574C3.59323 13.1306 3.58432 12.9983 3.60123 12.8681C3.61814 12.7378 3.66054 12.6122 3.726 12.4983L10.633 0.501347ZM2 15.5003C2.5 14.5003 5.5 13.5003 4.5 15.2203C3.95742 16.148 3.41308 17.0747 2.867 18.0003C2.73466 18.2303 2.51639 18.3982 2.26022 18.4673C2.00404 18.5363 1.73094 18.5007 1.501 18.3683C1.27106 18.236 1.10311 18.0177 1.03409 17.7616C0.965079 17.5054 1.00066 17.2323 1.133 17.0023L2 15.5003ZM7.133 1.49935C7.00066 1.2694 6.96508 0.996307 7.03409 0.740132C7.10311 0.483957 7.27106 0.26569 7.501 0.133347C7.73094 0.00100429 8.00404 -0.0345738 8.26022 0.0344396C8.51639 0.103453 8.73466 0.271405 8.867 0.501347L10.61 3.53035C10.6776 3.64423 10.7219 3.77041 10.7404 3.90156C10.7588 4.0327 10.751 4.16621 10.7175 4.29433C10.6839 4.42244 10.6252 4.54262 10.5448 4.64787C10.4644 4.75312 10.3639 4.84135 10.2492 4.90744C10.1344 4.97354 10.0077 5.01618 9.87627 5.03288C9.74489 5.04959 9.61149 5.04003 9.48384 5.00476C9.35618 4.96949 9.2368 4.90921 9.13262 4.82743C9.02845 4.74565 8.94156 4.64399 8.877 4.52835L7.133 1.49935ZM11 8.50035C10.102 7.00035 11 4.00035 11.716 5.49635L18.366 17.0003C18.4942 17.2299 18.5268 17.5007 18.4568 17.7541C18.3867 18.0075 18.2197 18.2232 17.9919 18.3544C17.7641 18.4856 17.4937 18.5218 17.2394 18.4552C16.9851 18.3885 16.7672 18.2244 16.633 17.9983L11 8.50035Z" fill="white"/>
</svg>
